<svg width="143" height="143" viewBox="0 0 143 143" fill="none" xmlns="http://www.w3.org/2000/svg">
<path opacity="0.3" d="M74.375 41.9248H104.73C118.535 41.9248 129.728 53.1169 129.728 66.9227C129.728 80.7287 118.535 91.9206 104.73 91.9206H74.375V41.9248Z" fill="url(#paint0_linear_7724_554)"/>
<path opacity="0.3" d="M74.375 41.9248H92.2307C106.036 41.9248 117.229 53.1169 117.229 66.9227C117.229 80.7287 106.036 91.9206 92.2307 91.9206H74.375V41.9248Z" fill="url(#paint1_linear_7724_554)"/>
<path opacity="0.3" d="M74.375 41.9248H81.5173C95.3231 41.9248 106.515 53.1169 106.515 66.9227C106.515 80.7287 95.3231 91.9206 81.5173 91.9206H74.375V41.9248Z" fill="url(#paint2_linear_7724_554)"/>
<path d="M71.9823 91.9255C85.7882 91.9255 96.9802 80.7336 96.9802 66.9276C96.9802 53.1216 85.7882 41.9297 71.9823 41.9297C58.1763 41.9297 46.9844 53.1216 46.9844 66.9276C46.9844 80.7336 58.1763 91.9255 71.9823 91.9255Z" fill="url(#paint3_linear_7724_554)"/>
<g filter="url(#filter0_d_7724_554)">
<path d="M73.854 92.302C87.6151 90.9386 97.6654 78.6778 96.3019 64.9167C94.9385 51.1557 82.6777 41.1054 68.9166 42.4688C55.1556 43.8322 45.1053 56.0931 46.4687 69.8541C47.8321 83.6152 60.0929 93.6655 73.854 92.302Z" fill="#FFDCA8"/>
</g>
<path opacity="0.6" d="M71.3866 89.4129C83.552 89.4129 93.4139 79.551 93.4139 67.3856C93.4139 55.2203 83.552 45.3584 71.3866 45.3584C59.2213 45.3584 49.3594 55.2203 49.3594 67.3856C49.3594 79.551 59.2213 89.4129 71.3866 89.4129Z" fill="url(#paint4_linear_7724_554)"/>
<path d="M60.9844 60.4717C61.0258 60.514 61.0985 60.5527 61.1038 60.5991C61.1555 61.051 61.4379 61.3543 61.7811 61.5971C64.9329 63.8259 68.0853 66.0538 71.2484 68.2665C72.0124 68.801 72.6182 68.7701 73.3722 68.2401C75.0949 67.0291 76.8163 65.8162 78.5352 64.6C79.5099 63.9103 80.2207 63.0139 80.5925 61.8786C80.7222 61.4824 80.7721 61.0604 80.8266 60.8016C80.8266 61.7906 80.9001 62.9373 80.808 64.0706C80.6944 65.4678 79.9903 66.62 78.8656 67.4497C76.9922 68.8316 75.0819 70.1646 73.1706 71.4949C72.5491 71.9274 71.8907 71.8141 71.2819 71.4188C70.6575 71.0134 70.0381 70.5994 69.4308 70.1692C66.9146 68.3861 64.4045 66.5944 61.8902 64.8086C61.4595 64.5026 61.1192 64.141 61.0426 63.5941C61.0444 62.7055 61.0476 61.8169 61.0453 60.9283C61.0451 60.8608 61.0056 60.7935 60.9844 60.7261C60.9844 60.6413 60.9844 60.5565 60.9844 60.4717Z" fill="url(#paint5_linear_7724_554)" fill-opacity="0.8"/>
<path d="M60.9844 60.5615C61.0258 60.6038 61.0985 60.6426 61.1038 60.689C61.1555 61.1408 61.4379 61.4442 61.7811 61.6869C64.9329 63.9158 68.0853 66.1437 71.2484 68.3564C72.0124 68.8908 72.6182 68.8599 73.3722 68.3299C75.0949 67.119 76.8163 65.906 78.5352 64.6898C79.5099 64.0002 80.2207 63.1037 80.5925 61.9684C80.7222 61.5723 80.7721 61.1503 80.8266 60.8914C80.8266 61.8805 80.9001 63.0271 80.808 64.1605C80.6944 65.5577 79.9903 66.7098 78.8656 67.5395C76.9922 68.9215 75.0819 70.2545 73.1706 71.5847C72.5491 72.0173 71.8907 71.904 71.2819 71.5087C70.6575 71.1032 70.0381 70.6893 69.4308 70.259C66.9146 68.476 64.4045 66.6842 61.8902 64.8984C61.4595 64.5925 61.1192 64.2308 61.0426 63.6839C61.0444 62.7954 61.0476 61.9067 61.0453 61.0182C61.0451 60.9507 61.0056 60.8833 60.9844 60.8159C60.9844 60.7312 60.9844 60.6464 60.9844 60.5615Z" fill="url(#paint6_linear_7724_554)" fill-opacity="0.8"/>
<path d="M60.9844 67.6523C61.0241 67.6789 61.0953 67.702 61.0986 67.7325C61.1536 68.2363 61.4924 68.5405 61.8678 68.8135C63.3124 69.8641 64.7494 70.9254 66.2098 71.9539C67.8267 73.0926 69.4646 74.2018 71.0962 75.3197C72.031 75.9602 72.5497 75.9629 73.4832 75.3103C75.1391 74.1528 76.7846 72.9806 78.4394 71.8215C79.4256 71.1307 80.1731 70.2537 80.5607 69.1106C80.7047 68.6862 80.7631 68.2332 80.9184 67.7924C80.8757 69.0227 80.9126 70.2623 80.7688 71.4809C80.6148 72.7865 79.8949 73.8527 78.8381 74.6288C76.979 75.9939 75.0854 77.3131 73.1944 78.6349C72.5317 79.0982 71.856 78.9607 71.2239 78.54C70.4007 77.992 69.5793 77.4405 68.7731 76.8685C66.4491 75.2195 64.1333 73.5593 61.8141 71.9037C61.3996 71.6078 61.1032 71.2364 61.039 70.7151C61.0419 69.8148 61.0459 68.9145 61.0448 68.0142C61.0448 67.9573 61.0054 67.9003 60.9844 67.8433C60.9844 67.7795 60.9844 67.716 60.9844 67.6523Z" fill="url(#paint7_linear_7724_554)" fill-opacity="0.8"/>
<path d="M60.9844 67.5537C61.0241 67.5803 61.0953 67.6034 61.0986 67.6338C61.1536 68.1377 61.4924 68.4418 61.8678 68.7149C63.3124 69.7655 64.7494 70.8268 66.2098 71.8553C67.8267 72.9939 69.4646 74.1031 71.0962 75.221C72.031 75.8616 72.5497 75.8643 73.4832 75.2117C75.1391 74.0542 76.7846 72.882 78.4394 71.7229C79.4256 71.032 80.1731 70.1551 80.5607 69.012C80.7047 68.5876 80.7631 68.1346 80.9184 67.6937C80.8757 68.9241 80.9126 70.1637 80.7688 71.3823C80.6148 72.6879 79.8949 73.7541 78.8381 74.5301C76.979 75.8953 75.0854 77.2145 73.1944 78.5363C72.5317 78.9996 71.856 78.862 71.2239 78.4413C70.4007 77.8933 69.5793 77.3419 68.7731 76.7698C66.4491 75.1208 64.1333 73.4606 61.8141 71.805C61.3996 71.5091 61.1032 71.1377 61.039 70.6165C61.0419 69.7161 61.0459 68.8159 61.0448 67.9156C61.0448 67.8586 61.0054 67.8017 60.9844 67.7447C60.9844 67.6809 60.9844 67.6173 60.9844 67.5537Z" fill="url(#paint8_linear_7724_554)" fill-opacity="0.8"/>
<path d="M65.5938 60.2301C65.6476 60.1689 65.6754 60.1217 65.7164 60.0931C66.7192 59.3937 67.7044 58.6669 68.7328 58.0068C69.7972 57.3238 70.9725 56.9228 72.2582 56.9248C73.4567 56.9267 74.5438 57.3061 75.5294 57.9615C76.0059 58.2783 76.4671 58.6281 76.8898 59.0122C77.5732 59.6332 77.644 60.7391 77.1002 61.4825C76.9787 61.6487 76.8523 61.6595 76.6927 61.5533C76.4713 61.4061 76.2516 61.2561 76.0263 61.1149C73.7516 59.6895 71.4764 59.7049 69.2019 61.1168C68.8405 61.3412 68.4826 61.5716 68.1143 61.7844C68.0404 61.8271 67.8991 61.8439 67.836 61.8023C67.1262 61.3333 66.4253 60.8511 65.7235 60.3702C65.6814 60.3415 65.6522 60.2943 65.5938 60.2301Z" fill="url(#paint9_linear_7724_554)" fill-opacity="0.8"/>
<path d="M65.5938 60.2301C65.6476 60.1689 65.6754 60.1217 65.7164 60.0931C66.7192 59.3937 67.7044 58.6669 68.7328 58.0068C69.7972 57.3238 70.9725 56.9228 72.2582 56.9248C73.4567 56.9267 74.5438 57.3061 75.5294 57.9615C76.0059 58.2783 76.4671 58.6281 76.8898 59.0122C77.5732 59.6332 77.644 60.7391 77.1002 61.4825C76.9787 61.6487 76.8523 61.6595 76.6927 61.5533C76.4713 61.4061 76.2516 61.2561 76.0263 61.1149C73.7516 59.6895 71.4764 59.7049 69.2019 61.1168C68.8405 61.3412 68.4826 61.5716 68.1143 61.7844C68.0404 61.8271 67.8991 61.8439 67.836 61.8023C67.1262 61.3333 66.4253 60.8511 65.7235 60.3702C65.6814 60.3415 65.6522 60.2943 65.5938 60.2301Z" fill="url(#paint10_linear_7724_554)" fill-opacity="0.8"/>
<defs>
<filter id="filter0_d_7724_554" x="0.34375" y="0.344727" width="142.078" height="142.081" filterUnits="userSpaceOnUse" color-interpolation-filters="sRGB">
<feFlood flood-opacity="0" result="BackgroundImageFix"/>
<feColorMatrix in="SourceAlpha" type="matrix" values="0 0 0 0 0 0 0 0 0 0 0 0 0 0 0 0 0 0 127 0" result="hardAlpha"/>
<feOffset dy="4"/>
<feGaussianBlur stdDeviation="23"/>
<feColorMatrix type="matrix" values="0 0 0 0 0 0 0 0 0 0 0 0 0 0 0 0 0 0 0.08 0"/>
<feBlend mode="normal" in2="BackgroundImageFix" result="effect1_dropShadow_7724_554"/>
<feBlend mode="normal" in="SourceGraphic" in2="effect1_dropShadow_7724_554" result="shape"/>
</filter>
<linearGradient id="paint0_linear_7724_554" x1="102.051" y1="34.8422" x2="102.051" y2="97.1702" gradientUnits="userSpaceOnUse">
<stop stop-color="#F9A606"/>
<stop offset="1" stop-color="#FBCC5F"/>
</linearGradient>
<linearGradient id="paint1_linear_7724_554" x1="95.8018" y1="34.8422" x2="95.8018" y2="97.1702" gradientUnits="userSpaceOnUse">
<stop stop-color="#F9A606"/>
<stop offset="1" stop-color="#FBCC5F"/>
</linearGradient>
<linearGradient id="paint2_linear_7724_554" x1="90.4451" y1="34.8422" x2="90.4451" y2="97.1702" gradientUnits="userSpaceOnUse">
<stop stop-color="#F9A606"/>
<stop offset="1" stop-color="#FBCC5F"/>
</linearGradient>
<linearGradient id="paint3_linear_7724_554" x1="71.9823" y1="34.8456" x2="71.9823" y2="97.1736" gradientUnits="userSpaceOnUse">
<stop stop-color="#F9A606"/>
<stop offset="1" stop-color="#FBCC5F"/>
</linearGradient>
<linearGradient id="paint4_linear_7724_554" x1="71.3866" y1="39.1175" x2="71.3866" y2="94.0386" gradientUnits="userSpaceOnUse">
<stop stop-color="#F9A606"/>
<stop offset="1" stop-color="#FBCC5F"/>
</linearGradient>
<linearGradient id="paint5_linear_7724_554" x1="73.691" y1="62.2559" x2="74.3292" y2="75.0715" gradientUnits="userSpaceOnUse">
<stop stop-color="white"/>
<stop offset="1" stop-color="white"/>
</linearGradient>
<linearGradient id="paint6_linear_7724_554" x1="73.691" y1="62.3457" x2="74.3292" y2="75.1614" gradientUnits="userSpaceOnUse">
<stop stop-color="white"/>
<stop offset="1" stop-color="white"/>
</linearGradient>
<linearGradient id="paint7_linear_7724_554" x1="73.732" y1="69.4322" x2="74.365" y2="82.2171" gradientUnits="userSpaceOnUse">
<stop stop-color="white"/>
<stop offset="1" stop-color="white"/>
</linearGradient>
<linearGradient id="paint8_linear_7724_554" x1="73.732" y1="69.3336" x2="74.365" y2="82.1185" gradientUnits="userSpaceOnUse">
<stop stop-color="white"/>
<stop offset="1" stop-color="white"/>
</linearGradient>
<linearGradient id="paint9_linear_7724_554" x1="73.1829" y1="57.6987" x2="73.3842" y2="63.2643" gradientUnits="userSpaceOnUse">
<stop stop-color="white"/>
<stop offset="1" stop-color="white"/>
</linearGradient>
<linearGradient id="paint10_linear_7724_554" x1="73.1829" y1="57.6987" x2="73.3842" y2="63.2643" gradientUnits="userSpaceOnUse">
<stop stop-color="white"/>
<stop offset="1" stop-color="white"/>
</linearGradient>
</defs>
</svg>
