<svg width="64" height="18" viewBox="0 0 64 18" fill="none" xmlns="http://www.w3.org/2000/svg">
<rect width="64" height="18" rx="4" fill="#575CFF"/>
<path d="M9.79261 5.5L11.2841 10.6278H11.3409L12.8324 5.5H15.0625L12.6619 12.7727H9.96307L7.5625 5.5H9.79261Z" fill="white"/>
<path d="M16.313 12.7727V5.5H21.5544V7.09091H18.2874V8.34091H21.2846V9.93182H18.2874V11.1818H21.5402V12.7727H16.313Z" fill="white"/>
<path d="M23.0837 12.7727V5.5H26.2229C26.7626 5.5 27.2349 5.59825 27.6398 5.79474C28.0446 5.99124 28.3595 6.27415 28.5844 6.64347C28.8093 7.01278 28.9217 7.45549 28.9217 7.97159C28.9217 8.49242 28.8057 8.93158 28.5737 9.28906C28.3441 9.64654 28.0209 9.91643 27.6043 10.0987C27.19 10.281 26.7058 10.3722 26.1518 10.3722H24.2768V8.83807H25.7541C25.9861 8.83807 26.1838 8.80966 26.3472 8.75284C26.5129 8.69366 26.6395 8.60014 26.7271 8.4723C26.8171 8.34446 26.8621 8.17756 26.8621 7.97159C26.8621 7.76326 26.8171 7.59399 26.7271 7.46378C26.6395 7.3312 26.5129 7.23414 26.3472 7.17259C26.1838 7.10866 25.9861 7.0767 25.7541 7.0767H25.0581V12.7727H23.0837ZM27.345 9.43466L29.1632 12.7727H27.0183L25.2428 9.43466H27.345Z" fill="white"/>
<path d="M32.2878 5.5V12.7727H30.3134V5.5H32.2878Z" fill="white"/>
<path d="M33.7735 12.7727V5.5H38.8871V7.09091H35.7479V8.34091H38.5746V9.93182H35.7479V12.7727H33.7735Z" fill="white"/>
<path d="M42.1378 5.5V12.7727H40.1634V5.5H42.1378Z" fill="white"/>
<path d="M43.6235 12.7727V5.5H48.865V7.09091H45.5979V8.34091H48.5951V9.93182H45.5979V11.1818H48.8508V12.7727H43.6235Z" fill="white"/>
<path d="M53.1925 12.7727H50.3942V5.5H53.1641C53.9122 5.5 54.5585 5.6456 55.103 5.93679C55.6499 6.22562 56.0713 6.64228 56.3672 7.18679C56.6655 7.72893 56.8147 8.37879 56.8147 9.13636C56.8147 9.89394 56.6667 10.545 56.3708 11.0895C56.0748 11.6316 55.6558 12.0483 55.1137 12.3395C54.5715 12.6283 53.9311 12.7727 53.1925 12.7727ZM52.3686 11.0966H53.1215C53.4813 11.0966 53.7879 11.0386 54.0412 10.9226C54.2969 10.8066 54.491 10.6065 54.6236 10.3224C54.7586 10.0384 54.826 9.64299 54.826 9.13636C54.826 8.62973 54.7574 8.23438 54.6201 7.95028C54.4851 7.66619 54.2863 7.46615 54.0235 7.35014C53.7631 7.23414 53.4435 7.17614 53.0647 7.17614H52.3686V11.0966Z" fill="white"/>
</svg>
